# xmcd
#
# Track frame offsets: 
#        150
#        20992
#        37820
#        57167
#        73144
#        87964
#        102672
#        120474
#        132870
#        148683
#        165980
#        180865
#        196816
#        215425
#        230158
#        242487
#        259327
#        273749
#        287185
#        304414
#
# Disc length: 4256 seconds
#
# Revision: 3
# Processed by: cddbd v1.5.2PL0 Copyright (c) Steve Scherf et al.
# Submitted via: ExactAudioCopyFreeDBPlugin 1.0
#
DISCID=2d109e14
DTITLE=Various Artist - Bravo Hits 42 [CD1]
DYEAR=2003
DGENRE=Pop
TTITLE0=Outlandish - Aicha
TTITLE1=Stacie Orrico - Stuck
TTITLE2=The Rasmus - In The Shadows
TTITLE3=Sean Paul - Get Busy
TTITLE4=Vanessa S. - Fiesta
TTITLE5=T.A.T.U. - How Soon Is Now?
TTITLE6=Starsplash - Fly Away (Owner of Your Heart) (feat. Daisy Dee)
TTITLE7=Baracuda - I Leave The World Today
TTITLE8=The Love Committee - Love Rules (Loveparade 2003)
TTITLE9=One-T - The Magic Key (feat. Cool-T)
TTITLE10=Hella - Liebst Du Mich (oder liebst du mich nicht)
TTITLE11=Alexander - Stay With Me
TTITLE12=Christina Aguilera - Fighter
TTITLE13=No Angels - Someday
TTITLE14=Bhangra Knights Vs. Husan - Husan
TTITLE15=Frank Popp Ensemble - Hip Teens Don't Wear Blue Jeans
TTITLE16=Cecil Jonni Lauro - Everybody Cha Cha
TTITLE17=DJ Bobo - Chihuahua
TTITLE18=Ausseer Hardbradler - Hoamweh nach B. A.
TTITLE19=Die Gerd Show - Zuhause (Azzurro)
EXTD=
EXTT0=
EXTT1=
EXTT2=
EXTT3=
EXTT4=
EXTT5=
EXTT6=
EXTT7=
EXTT8=
EXTT9=
EXTT10=
EXTT11=
EXTT12=
EXTT13=
EXTT14=
EXTT15=
EXTT16=
EXTT17=
EXTT18=
EXTT19=
PLAYORDER=
